Normalized EMG Linear Envelopes
nRows=136
nColumns=4

endheader
time	 med_gas_r	  soleus_r	 tib_ant_r	
2.87482	  0.121579	  0.100089	  0.067819	
2.93731	  0.124567	  0.103161	  0.069219	
2.99981	  0.123924	  0.106813	  0.067914	
3.0623	  0.120973	  0.107986	  0.066078	
3.1248	  0.120636	  0.107679	  0.066406	
3.1873	  0.122412	  0.109108	  0.068052	
3.24979	  0.124032	  0.110862	  0.070236	
3.31229	  0.126747	  0.110430	  0.071639	
3.37478	  0.126858	  0.110105	  0.071358	
3.43728	  0.124859	  0.110494	  0.069906	
3.49978	  0.126276	  0.111628	  0.067573	
3.56227	  0.127010	  0.112627	  0.063468	
3.62477	  0.127083	  0.112855	  0.059964	
3.68726	  0.130434	  0.112853	  0.058784	
3.74976	  0.135147	  0.114233	  0.060892	
3.81226	  0.140611	  0.118990	  0.068865	
3.87475	  0.146746	  0.124197	  0.088264	
3.93725	  0.146997	  0.127249	  0.120645	
3.99974	  0.142761	  0.127030	  0.160927	
4.06224	  0.134859	  0.126772	  0.196774	
4.12474	  0.126425	  0.129163	  0.226779	
4.18723	  0.123587	  0.134675	  0.257057	
4.24973	  0.130915	  0.141006	  0.296615	
4.31222	  0.150710	  0.146948	  0.359231	
4.37472	  0.185177	  0.154943	  0.447624	
4.43722	  0.228194	  0.160755	  0.546624	
4.49971	  0.271936	  0.161033	  0.644223	
4.56221	  0.309059	  0.157488	  0.722170	
4.6247	  0.335260	  0.153559	  0.765612	
4.6872	  0.354564	  0.155516	  0.762944	
4.7497	  0.361339	  0.164603	  0.707139	
4.81219	  0.362390	  0.175453	  0.642473	
4.87469	  0.356790	  0.179859	  0.610378	
4.93718	  0.349317	  0.176626	  0.606637	
4.99968	  0.345262	  0.173186	  0.608311	
5.06218	  0.344020	  0.169114	  0.603590	
5.12467	  0.347348	  0.165950	  0.605591	
5.18717	  0.363191	  0.165759	  0.621950	
5.24966	  0.387774	  0.168136	  0.650271	
5.31216	  0.401615	  0.171444	  0.682854	
5.37466	  0.398234	  0.178005	  0.692843	
5.43715	  0.392553	  0.190287	  0.683902	
5.49965	  0.389104	  0.208919	  0.672832	
5.56214	  0.387341	  0.231160	  0.669257	
5.62464	  0.398174	  0.253959	  0.669057	
5.68714	  0.418522	  0.276864	  0.671508	
5.74963	  0.437977	  0.294403	  0.693234	
5.81213	  0.448713	  0.304578	  0.714988	
5.87462	  0.446569	  0.309940	  0.720133	
5.93712	  0.447959	  0.306390	  0.719368	
5.99962	  0.455956	  0.297573	  0.710625	
6.06211	  0.473523	  0.292838	  0.697421	
6.12461	  0.497001	  0.306070	  0.682902	
6.1871	  0.513783	  0.340738	  0.683658	
6.2496	  0.539702	  0.375900	  0.692727	
6.3121	  0.562569	  0.394524	  0.693384	
6.37459	  0.585711	  0.401822	  0.694818	
6.43709	  0.602142	  0.396134	  0.700070	
6.49958	  0.598082	  0.383156	  0.691318	
6.56208	  0.578645	  0.367320	  0.680469	
6.62458	  0.559765	  0.362095	  0.676345	
6.68707	  0.553993	  0.373517	  0.677960	
6.74957	  0.561025	  0.404116	  0.662566	
6.81206	  0.567012	  0.454695	  0.633377	
6.87456	  0.572487	  0.501600	  0.604540	
6.93706	  0.574681	  0.518629	  0.580539	
6.99955	  0.562620	  0.520067	  0.561419	
7.06205	  0.540176	  0.504834	  0.558112	
7.12454	  0.508384	  0.481989	  0.567541	
7.18704	  0.484983	  0.470456	  0.588930	
7.24954	  0.474399	  0.460890	  0.614955	
7.31203	  0.472631	  0.464272	  0.630612	
7.37453	  0.481559	  0.482754	  0.637937	
7.43702	  0.491236	  0.495399	  0.644107	
7.49952	  0.485281	  0.496991	  0.645318	
7.56202	  0.479043	  0.487584	  0.626326	
7.62451	  0.483638	  0.449940	  0.597351	
7.68701	  0.498176	  0.405173	  0.560367	
7.7495	  0.501102	  0.375072	  0.517499	
7.812	  0.485947	  0.351084	  0.503360	
7.8745	  0.460853	  0.336928	  0.526881	
7.93699	  0.435276	  0.331526	  0.552895	
7.99949	  0.420384	  0.321524	  0.557074	
8.06198	  0.405459	  0.309160	  0.541816	
8.12448	  0.392777	  0.296848	  0.525510	
8.18698	  0.386896	  0.289688	  0.532147	
8.24947	  0.383296	  0.290231	  0.562494	
8.31197	  0.388407	  0.303652	  0.602845	
8.37446	  0.406515	  0.326492	  0.645758	
8.43696	  0.430034	  0.355468	  0.686997	
8.49946	  0.452170	  0.380493	  0.710979	
8.56195	  0.468584	  0.393205	  0.714790	
8.62445	  0.466347	  0.401629	  0.683066	
8.68694	  0.456840	  0.400408	  0.631706	
8.74944	  0.438160	  0.393112	  0.590134	
8.81194	  0.426250	  0.398834	  0.578198	
8.87443	  0.414526	  0.412027	  0.588649	
8.93693	  0.402501	  0.395865	  0.596150	
8.99942	  0.393981	  0.358383	  0.595291	
9.06192	  0.384083	  0.330088	  0.590200	
9.12442	  0.380064	  0.330189	  0.589179	
9.18691	  0.377263	  0.359207	  0.586444	
9.24941	  0.386465	  0.394385	  0.564777	
9.3119	  0.409086	  0.413250	  0.537270	
9.3744	  0.436376	  0.421052	  0.511965	
9.4369	  0.459680	  0.429602	  0.498945	
9.49939	  0.464788	  0.442942	  0.497161	
9.56189	  0.454828	  0.465970	  0.488219	
9.62438	  0.438977	  0.490657	  0.470794	
9.68688	  0.428906	  0.505847	  0.461957	
9.74938	  0.419243	  0.514970	  0.458466	
9.81187	  0.402364	  0.518331	  0.447294	
9.87437	  0.386518	  0.524140	  0.439991	
9.93686	  0.377484	  0.525163	  0.450091	
9.99936	  0.388261	  0.528500	  0.477509	
10.0619	  0.413934	  0.547145	  0.506480	
10.1244	  0.440772	  0.570677	  0.521153	
10.1868	  0.449870	  0.582784	  0.513481	
10.2493	  0.432713	  0.544284	  0.481990	
10.3118	  0.402713	  0.467499	  0.430700	
10.3743	  0.357257	  0.374226	  0.388421	
10.4368	  0.316734	  0.276462	  0.380781	
10.4993	  0.291139	  0.197472	  0.388631	
10.5618	  0.268080	  0.146556	  0.375509	
10.6243	  0.240134	  0.117632	  0.350327	
10.6868	  0.211795	  0.104893	  0.336022	
10.7493	  0.187538	  0.101689	  0.331117	
10.8118	  0.174073	  0.103703	  0.332217	
10.8743	  0.168696	  0.107049	  0.342070	
10.9368	  0.163145	  0.108581	  0.353338	
10.9993	  0.159528	  0.109720	  0.352777	
11.0618	  0.167604	  0.110124	  0.342509	
11.1243	  0.184997	  0.109961	  0.333189	
11.1868	  0.191027	  0.112305	  0.322373	
11.2493	  0.184867	  0.116073	  0.298760	
11.3118	  0.186710	  0.118164	  0.266809	
